<svg width="512" height="512" viewBox="0 0 512 512" fill="none" xmlns="http://www.w3.org/2000/svg">
<rect width="512" height="512" rx="102" fill="#101010"/>
<rect x="256.003" y="196.795" width="83.9994" height="83.999" transform="rotate(45 256.003 196.795)" fill="white" fill-opacity="0.75"/>
<path fill-rule="evenodd" clip-rule="evenodd" d="M434.19 256.19L374.794 196.794L315.398 256.19L374.794 315.587L434.19 256.19ZM315.396 137.398L374.792 196.795L315.396 256.191L256.001 196.796L196.605 256.192L137.209 196.795L196.603 137.4L196.601 137.399L255.998 78.0023L315.394 137.399L255.999 196.794L256 196.794L315.396 137.398ZM137.205 196.795L196.602 256.191L137.206 315.587L77.8091 256.191L137.205 196.795Z" fill="white"/>
<rect x="255.999" y="315.589" width="83.9994" height="83.999" transform="rotate(45 255.999 315.589)" fill="white"/>
</svg>
